<?xml version="1.0" encoding="utf-8"?>
<svg version="1.1" id="Layer_1" xmlns="http://www.w3.org/2000/svg" xmlns:xlink="http://www.w3.org/1999/xlink" x="0px" y="0px"
	 viewBox="0 0 36 36" enable-background="new 0 0 36 36" xml:space="preserve">
<path fill="#4555A5" d="M33,17.999c0,2.475-0.449,4.77-1.396,6.93c-0.992,2.205-2.253,4.096-3.876,5.76
		c-1.62,1.62-3.558,2.926-5.766,3.87c-2.16,0.944-4.503,1.44-6.98,1.44H3l5.991-6.03h5.991c1.666,0,3.243-0.315,4.684-0.899
		c1.442-0.631,2.749-1.485,3.83-2.61s1.936-2.385,2.567-3.825c0.631-1.484,0.946-3.015,0.946-4.635c0-1.62-0.315-3.149-0.946-4.635
		c-0.632-1.44-1.486-2.7-2.612-3.825c-1.081-1.08-2.388-1.98-3.83-2.61c-1.441-0.585-3.018-0.9-4.639-0.9H8.991L3,0h11.982
		c2.478,0,4.775,0.495,6.98,1.44c2.163,0.945,4.101,2.25,5.721,3.87c1.668,1.665,2.929,3.555,3.921,5.76
		C32.551,13.229,33,15.524,33,17.999z"/>
</svg>
