<svg version="1.1" xmlns="http://www.w3.org/2000/svg" width="32" height="32" viewBox="0 0 32 32">
  <title>angular</title>
  <path d="M9.166 30.339c-3.655-2.027-6.7-3.797-6.766-3.932s-0.299-1.885-0.516-3.889c-0.394-3.633-0.786-7.066-1.476-12.932-0.2-1.703-0.382-3.293-0.403-3.534-0.033-0.373 0.095-0.484 0.871-0.756 0.501-0.175 3.247-1.154 6.102-2.175s6.025-2.141 7.045-2.489l1.854-0.632 4.521 1.544c2.486 0.849 6.141 2.095 8.122 2.768l3.601 1.224-0.098 0.568c-0.054 0.313-0.63 4.83-1.279 10.040s-1.224 9.679-1.277 9.933c-0.081 0.389-0.991 0.955-5.782 3.6-3.127 1.726-6.178 3.411-6.779 3.744l-1.093 0.606zM10.621 23.418l1.002-2.47 8.828-0.069 2.119 4.918 1.767 0.052c0.972 0.029 1.767-0.003 1.767-0.071s-2.254-4.954-5.009-10.858-5.009-10.81-5.009-10.903-0.123-0.168-0.273-0.168-0.273 0.071-0.273 0.159c0 0.16-1.958 4.556-6.943 15.584-1.491 3.299-2.711 6.065-2.711 6.147s0.84 0.149 1.867 0.149h1.867zM13.062 17.6c0.635-1.566 2.678-6.364 2.733-6.419 0.085-0.085 3.204 6.292 3.204 6.551 0 0.102-1.208 0.147-3.006 0.111-1.908-0.039-2.979-0.127-2.932-0.243z"></path>
</svg>
