<svg version="1.1" xmlns="http://www.w3.org/2000/svg" width="32" height="32" viewBox="0 0 32 32">
  <title>business</title>
  <path d="M13.313 9.313h13.375v18.688h-26.688v-24h13.313v5.313zM5.313 25.313v-2.625h-2.625v2.625h2.625zM5.313 20v-2.688h-2.625v2.688h2.625zM5.313 14.688v-2.688h-2.625v2.688h2.625zM5.313 9.313v-2.625h-2.625v2.625h2.625zM10.688 25.313v-2.625h-2.688v2.625h2.688zM10.688 20v-2.688h-2.688v2.688h2.688zM10.688 14.688v-2.688h-2.688v2.688h2.688zM10.688 9.313v-2.625h-2.688v2.625h2.688zM24 25.313v-13.313h-10.688v2.688h2.688v2.625h-2.688v2.688h2.688v2.688h-2.688v2.625h10.688zM21.313 14.688v2.625h-2.625v-2.625h2.625zM21.313 20v2.688h-2.625v-2.688h2.625z"></path>
</svg>
