<!-- Generated by IcoMoon.io -->
<svg version="1.1" xmlns="http://www.w3.org/2000/svg" width="32" height="32" viewBox="0 0 32 32">
<title>git</title>
<path d="M-17.544 44.77c0.022-0.006 0.053-0.005 0.069 0.001s-0.003 0.011-0.040 0.011c-0.038-0.001-0.050-0.006-0.028-0.011zM-17.155 44.77c0.022-0.006 0.053-0.005 0.069 0.001s-0.003 0.011-0.040 0.011c-0.038-0.001-0.050-0.006-0.028-0.011zM-15.515 44.114c0-0.005 0.018-0.023 0.040-0.040 0.036-0.028 0.037-0.028 0.009 0.009-0.030 0.038-0.049 0.050-0.049 0.031zM-17.578 35.651c0.016-0.006 0.041-0.006 0.057 0s0.003 0.011-0.029 0.011-0.044-0.005-0.029-0.011zM-17.018 35.65c0.022-0.006 0.053-0.005 0.069 0.001s-0.003 0.011-0.040 0.011c-0.038-0-0.050-0.006-0.028-0.011zM-19.427 34.872c-0.028-0.036-0.028-0.037 0.009-0.009 0.038 0.030 0.050 0.049 0.031 0.049-0.005 0-0.023-0.018-0.040-0.040zM-15.058 34.809c0.030-0.031 0.059-0.057 0.065-0.057s-0.013 0.026-0.042 0.057c-0.030 0.031-0.059 0.057-0.065 0.057s0.013-0.026 0.042-0.057zM-14.841 34.592c0.023-0.025 0.046-0.046 0.053-0.046s-0.007 0.021-0.030 0.046c-0.023 0.025-0.046 0.046-0.053 0.046s0.007-0.021 0.030-0.046zM-19.793 34.506c-0.028-0.036-0.028-0.037 0.009-0.009 0.038 0.030 0.050 0.049 0.031 0.049-0.005 0-0.023-0.018-0.040-0.040zM-14.005 32.818c0.001-0.027 0.007-0.032 0.014-0.014 0.007 0.016 0.006 0.036-0.002 0.044s-0.013-0.006-0.012-0.030zM-20.565 32.704c0.001-0.027 0.007-0.032 0.014-0.014 0.007 0.016 0.006 0.036-0.002 0.044s-0.013-0.006-0.012-0.030zM-13.98 32.603c0-0.031 0.005-0.044 0.012-0.029s0.006 0.041 0 0.057c-0.006 0.016-0.012 0.003-0.012-0.029zM-13.98 32.112c0-0.038 0.006-0.050 0.011-0.028s0.005 0.053-0.001 0.069c-0.006 0.015-0.011-0.003-0.011-0.040zM-20.565 32.018c0.001-0.027 0.007-0.032 0.014-0.014 0.007 0.016 0.006 0.036-0.002 0.044s-0.013-0.006-0.012-0.030zM-19.835 30.263c0-0.005 0.018-0.023 0.040-0.040 0.036-0.028 0.037-0.028 0.009 0.009-0.030 0.038-0.049 0.050-0.049 0.031zM-14.81 30.163c-0.028-0.036-0.028-0.037 0.009-0.009 0.038 0.030 0.050 0.049 0.031 0.049-0.005 0-0.023-0.018-0.040-0.040zM-15.095 29.877l-0.044-0.051 0.051 0.044c0.048 0.041 0.062 0.059 0.044 0.059-0.004 0-0.027-0.023-0.051-0.051zM-19.424 29.852c0-0.005 0.018-0.023 0.040-0.040 0.036-0.028 0.037-0.028 0.009 0.009-0.030 0.038-0.049 0.050-0.049 0.031zM-8.355 26.643c0.060-0.005 0.157-0.005 0.217 0s0.011 0.009-0.109 0.009-0.168-0.004-0.109-0.009zM-8.685 26.622c0.016-0.007 0.036-0.006 0.044 0.002s-0.006 0.013-0.030 0.012c-0.027-0.001-0.032-0.007-0.014-0.014zM-7.863 26.622c0.016-0.007 0.036-0.006 0.044 0.002s-0.006 0.013-0.030 0.012c-0.027-0.001-0.032-0.007-0.014-0.014zM-6.030 25.78c0.030-0.031 0.059-0.057 0.065-0.057s-0.013 0.026-0.042 0.057c-0.030 0.031-0.059 0.057-0.065 0.057s0.013-0.026 0.042-0.057zM-10.615 25.672l-0.044-0.051 0.051 0.044c0.048 0.041 0.062 0.059 0.044 0.059-0.004 0-0.028-0.023-0.051-0.051zM-5.824 25.575c0.029-0.031 0.059-0.057 0.065-0.057s-0.013 0.026-0.042 0.057-0.059 0.057-0.065 0.057 0.013-0.026 0.042-0.057zM-10.81 25.455c-0.028-0.036-0.028-0.037 0.009-0.009 0.022 0.017 0.040 0.035 0.040 0.040 0 0.019-0.019 0.007-0.049-0.031zM3.57 25.029c0-0.005 0.018-0.023 0.040-0.040 0.036-0.028 0.037-0.028 0.009 0.009-0.030 0.038-0.049 0.050-0.049 0.031zM-38.398 24.86c-0.028-0.036-0.028-0.037 0.009-0.009 0.038 0.030 0.050 0.049 0.031 0.049-0.005 0-0.023-0.018-0.040-0.040zM-4.976 23.698c0.001-0.027 0.006-0.032 0.014-0.014 0.007 0.016 0.006 0.036-0.002 0.044s-0.013-0.006-0.012-0.030zM-11.557 23.586c0.001-0.038 0.006-0.050 0.011-0.028s0.005 0.053-0.001 0.069c-0.006 0.015-0.011-0.003-0.011-0.040zM-4.95 23.346c0-0.044 0.005-0.062 0.011-0.040s0.006 0.058 0 0.080c-0.006 0.022-0.011 0.004-0.011-0.040zM4.283 23.357c0-0.038 0.006-0.050 0.011-0.028s0.005 0.053-0.001 0.069c-0.006 0.015-0.011-0.003-0.011-0.040zM-39.031 23.289c0-0.038 0.006-0.050 0.011-0.028s0.005 0.053-0.001 0.069c-0.006 0.015-0.011-0.003-0.011-0.040zM-11.557 23.117c0-0.031 0.005-0.044 0.011-0.029s0.006 0.041 0 0.057c-0.006 0.016-0.011 0.003-0.011-0.029zM-4.976 22.99c0.001-0.027 0.006-0.032 0.014-0.014 0.007 0.016 0.006 0.036-0.002 0.044s-0.013-0.006-0.012-0.030zM4.283 22.969c0-0.038 0.006-0.050 0.011-0.028s0.005 0.053-0.001 0.069c-0.006 0.015-0.011-0.003-0.011-0.040zM-39.032 22.866c0-0.031 0.005-0.044 0.012-0.029s0.006 0.041 0 0.057c-0.006 0.016-0.012 0.003-0.012-0.029zM-11.331 22.098c0.001-0.027 0.007-0.032 0.014-0.014 0.007 0.017 0.006 0.036-0.002 0.044s-0.013-0.006-0.012-0.030zM3.613 21.34c-0.028-0.036-0.028-0.037 0.009-0.009 0.022 0.017 0.040 0.035 0.040 0.040 0 0.019-0.019 0.007-0.049-0.031zM-38.395 21.28c0-0.005 0.018-0.023 0.040-0.040 0.036-0.028 0.037-0.028 0.009 0.009-0.030 0.038-0.049 0.050-0.049 0.031zM-5.826 21.112l-0.055-0.063 0.063 0.055c0.059 0.052 0.073 0.070 0.055 0.070-0.004 0-0.032-0.028-0.063-0.063zM-6.054 20.883l-0.055-0.063 0.063 0.055c0.035 0.031 0.063 0.059 0.063 0.063 0 0.018-0.019 0.003-0.070-0.055zM-10.521 19.043l-1.166-1.171 1.171 1.166c1.089 1.083 1.182 1.177 1.166 1.177-0.003 0-0.53-0.527-1.171-1.171zM-8.663 20.062c0.016-0.007 0.036-0.006 0.044 0.002s-0.006 0.013-0.030 0.012c-0.027-0.001-0.032-0.007-0.014-0.014zM-7.863 20.062c0.016-0.007 0.036-0.006 0.044 0.002s-0.006 0.013-0.030 0.012c-0.027-0.001-0.032-0.007-0.014-0.014zM-8.333 20.038c0.047-0.005 0.124-0.005 0.171 0s0.009 0.009-0.086 0.009c-0.094 0-0.133-0.004-0.086-0.009zM-19.816 16.449c-0.028-0.036-0.028-0.037 0.009-0.009 0.038 0.030 0.050 0.049 0.031 0.049-0.005 0-0.023-0.018-0.040-0.040zM-14.135 15.427c-0.007-0.018-0.008-0.047-0.003-0.063s0.015-0.001 0.022 0.034c0.013 0.068 0.002 0.084-0.019 0.029zM-14.005 14.761c0.001-0.027 0.007-0.032 0.014-0.014 0.007 0.016 0.006 0.036-0.002 0.044s-0.013-0.006-0.012-0.030zM-20.565 14.67c0.001-0.027 0.007-0.032 0.014-0.014 0.007 0.016 0.006 0.036-0.002 0.044s-0.013-0.006-0.012-0.030zM-13.979 14.523c0-0.044 0.005-0.062 0.010-0.040s0.006 0.058 0 0.080c-0.006 0.022-0.010 0.004-0.010-0.040zM-13.98 14.123c0.001-0.038 0.006-0.050 0.011-0.028s0.005 0.053-0.001 0.069c-0.006 0.015-0.011-0.003-0.011-0.040zM-20.563 13.997c0-0.031 0.005-0.044 0.012-0.029s0.006 0.041 0 0.057c-0.006 0.016-0.012 0.003-0.012-0.029zM-14.831 12.106l-0.055-0.063 0.063 0.055c0.035 0.030 0.063 0.059 0.063 0.063 0 0.018-0.019 0.003-0.070-0.055zM-15.072 11.866l-0.044-0.051 0.051 0.044c0.048 0.041 0.062 0.059 0.044 0.059-0.004 0-0.027-0.023-0.051-0.051zM-20.83 8.712l-2.469-2.474 2.474 2.469c1.361 1.358 2.474 2.471 2.474 2.474s-0.003 0.006-0.006 0.006-1.117-1.113-2.474-2.474zM-17.555 11.034c0.016-0.006 0.041-0.006 0.057 0s0.003 0.012-0.029 0.012-0.044-0.005-0.029-0.012zM-17.030 11.034c0.016-0.006 0.041-0.006 0.057 0s0.003 0.012-0.029 0.012c-0.031 0-0.044-0.005-0.029-0.012zM-19.287 2.172c0-0.005 0.018-0.023 0.040-0.040 0.036-0.028 0.037-0.028 0.009 0.009-0.030 0.038-0.049 0.050-0.049 0.031zM-15.61 2.117c-0.028-0.036-0.028-0.037 0.009-0.009 0.038 0.030 0.050 0.049 0.031 0.049-0.005 0-0.023-0.018-0.040-0.040zM-17.635 1.456c0.022-0.006 0.053-0.005 0.069 0.001s-0.003 0.011-0.040 0.010c-0.038-0-0.050-0.006-0.028-0.011zM-17.246 1.456c0.022-0.006 0.053-0.005 0.069 0.001s-0.003 0.011-0.040 0.010c-0.038-0-0.050-0.006-0.028-0.011zM15.702 31.051c-0.251-0.045-0.511-0.152-0.751-0.31-0.1-0.065-1.444-1.401-7.026-6.98-3.797-3.794-6.947-6.953-7-7.018-0.194-0.239-0.33-0.53-0.394-0.842-0.031-0.149-0.034-0.211-0.028-0.452 0.006-0.237 0.014-0.305 0.052-0.444 0.052-0.195 0.171-0.452 0.291-0.629 0.068-0.101 1.075-1.116 4.798-4.843 2.592-2.593 4.719-4.715 4.729-4.715s0.8 0.783 1.757 1.741l1.741 1.741-0.044 0.128c-0.173 0.5-0.175 1.056-0.007 1.562 0.066 0.199 0.223 0.498 0.35 0.668 0.215 0.287 0.545 0.563 0.86 0.721l0.136 0.068v8.515l-0.178 0.093c-0.234 0.121-0.418 0.261-0.621 0.472-0.697 0.724-0.871 1.783-0.44 2.693 0.134 0.283 0.288 0.495 0.52 0.717 0.332 0.317 0.733 0.527 1.196 0.626 0.2 0.043 0.739 0.042 0.937-0.001 0.976-0.213 1.684-0.921 1.899-1.901 0.043-0.194 0.052-0.613 0.018-0.826-0.116-0.737-0.544-1.366-1.181-1.734l-0.127-0.074v-4.183c0-2.301 0.006-4.183 0.012-4.183s0.719 0.706 1.582 1.569l1.569 1.569-0.045 0.129c-0.121 0.347-0.158 0.803-0.095 1.17 0.276 1.614 2.011 2.494 3.471 1.762 0.668-0.335 1.137-0.96 1.285-1.715 0.046-0.236 0.050-0.616 0.007-0.851-0.182-1.005-0.944-1.772-1.958-1.967-0.204-0.039-0.636-0.039-0.839 0-0.081 0.016-0.194 0.043-0.251 0.059l-0.103 0.031-3.425-3.412 0.044-0.179c0.066-0.271 0.083-0.444 0.072-0.714-0.017-0.41-0.125-0.777-0.33-1.124-0.37-0.627-1.018-1.058-1.745-1.161-0.284-0.040-0.744-0.007-1.003 0.073l-0.082 0.025-3.552-3.553 1.463-1.461c1.029-1.028 1.5-1.487 1.587-1.547 0.252-0.175 0.572-0.306 0.853-0.347 0.218-0.032 0.598-0.013 0.795 0.040 0.273 0.073 0.501 0.187 0.728 0.365 0.073 0.057 3.203 3.176 7.031 7.006 5.458 5.461 6.915 6.928 6.977 7.022 0.164 0.25 0.269 0.509 0.315 0.775 0.031 0.177 0.031 0.518 0 0.695-0.047 0.27-0.17 0.562-0.338 0.804-0.123 0.177-13.815 13.87-13.993 13.993-0.242 0.168-0.533 0.291-0.804 0.338-0.172 0.030-0.542 0.029-0.715-0.002z"></path>
</svg>
