<!-- Generated by IcoMoon.io -->
<svg version="1.1" xmlns="http://www.w3.org/2000/svg" width="29" height="32" viewBox="0 0 29 32">
<title>group</title>
<path d="M9.313 10.688v5.313h6.688v-5.313h-6.688zM0 1.313h5.313v1.375h18.688v-1.375h5.313v5.375h-1.313v18.625h1.313v5.375h-5.313v-1.375h-18.688v1.375h-5.313v-5.375h1.313v-18.625h-1.313v-5.375zM5.313 25.313v1.375h18.688v-1.375h1.313v-18.625h-1.313v-1.375h-18.688v1.375h-1.313v18.625h1.313zM6.688 8h12v5.313h4v10.688h-13.375v-5.313h-2.625v-10.688zM18.688 18.688h-6.688v2.625h8v-5.313h-1.313v2.688z"></path>
</svg>
