<!-- Generated by IcoMoon.io -->
<svg version="1.1" xmlns="http://www.w3.org/2000/svg" width="32" height="32" viewBox="0 0 32 32">
<title>gulp</title>
<path d="M20.32 1.984c1.038-1.089 1.92-1.986 1.97-1.984 0.168 0 0.619 0.342 0.735 0.545 0.106 0.215 0.063 0.277-2.254 2.796-1.237 1.345-1.3 1.451-1.636 3.041-0.106 0.545-0.116 0.694-0.011 0.768 0.073 0.042 0.546 0.106 1.038 0.138 1.447 0.096 2.852 0.48 2.852 0.779 0 0.63-3.585 1.068-7.958 0.971-3.545-0.086-5.422-0.332-5.998-0.812l-0.241-0.203 0.408-0.214c0.23-0.117 0.87-0.288 1.415-0.374 1.091-0.192 4.235-0.395 5.924-0.395h1.070l0.347-1.419c0.188-0.768 0.377-1.462 0.408-1.537 0.032-0.064 0.902-1.013 1.93-2.102zM9.112 9.623l-0.072-0.983 0.462 0.16c0.252 0.097 1.217 0.268 2.139 0.385 1.478 0.203 2.065 0.213 4.928 0.17 3.261-0.054 4.75-0.193 5.945-0.555l0.524-0.15-0.063 0.395c-0.031 0.214-0.084 0.662-0.116 0.982-0.147 1.526-0.493 4.769-0.64 5.922-0.168 1.408-0.168 1.408-1.227 2.155-0.512 0.363-0.607 0.234-0.188-0.267 0.178-0.213 0.451-0.629 0.587-0.928 0.22-0.459 0.242-0.555 0.116-0.747-0.252-0.385-0.777-0.341-1.301 0.106l-0.324 0.277-0.031-0.245c-0.021-0.138-0.116-0.256-0.22-0.277-0.136-0.032-0.252 0.139-0.483 0.651-0.242 0.554-0.431 0.789-0.882 1.131-0.597 0.468-0.807 0.533-0.807 0.277 0-0.192 0.451-1.429 1.174-3.179 0.283-0.683 0.482-1.301 0.451-1.355-0.104-0.18-0.462-0.117-0.566 0.097-0.063 0.108-0.492 1.153-0.954 2.316-0.462 1.153-0.892 2.145-0.965 2.198-0.23 0.14-0.608 0.096-0.608-0.074 0-0.085 0.147-0.555 0.315-1.035 0.178-0.49 0.294-0.939 0.263-1.013-0.116-0.33-0.388-0.096-0.735 0.63-0.44 0.949-0.859 1.462-1.206 1.504-0.231 0.021-0.263-0.021-0.252-0.32 0.011-0.181 0.147-0.609 0.294-0.939 0.345-0.768 0.356-1.045 0.041-0.992-0.148 0.021-0.315 0.203-0.472 0.512-0.336 0.672-0.681 1.889-0.608 2.134 0.168 0.523 0.87 0.512 1.478-0.021 0.315-0.277 0.356-0.299 0.356-0.117 0 0.117 0.063 0.299 0.147 0.406 0.137 0.193 0.158 0.193 0.63 0.011 0.46-0.181 0.503-0.181 0.692-0.011 0.241 0.224 0.671 0.149 1.164-0.214 0.19-0.149 0.357-0.245 0.378-0.224 0.021 0.011-0.157 0.438-0.388 0.95-0.535 1.152-0.608 1.514-0.356 1.611 0.273 0.108 0.494-0.192 0.882-1.216 0.735-1.92 1.395-2.967 1.982-3.126 0.398-0.096 0.356 0.139-0.126 0.757-0.766 1.002-0.861 1.312-0.483 1.526 0.347 0.182 0.871 0.022 1.458-0.448 0.618-0.501 0.598-0.662 0.315 1.857-0.283 2.561-0.398 3.361-0.524 3.596-0.126 0.247-1.154 0.588-2.464 0.812-0.735 0.138-1.458 0.161-3.303 0.117-2.421-0.053-3.292-0.182-4.477-0.662l-0.419-0.17-0.178-1.515c-0.094-0.833-0.2-1.963-0.241-2.508l-0.063-0.982h0.408c0.419 0 0.713-0.148 1.217-0.618 0.157-0.15 0.325-0.246 0.356-0.214 0.031 0.042-0.010 0.331-0.105 0.651s-0.168 0.683-0.168 0.8c0 0.288 0.2 0.406 0.367 0.224 0.209-0.224 1.321-3.938 1.258-4.162-0.084-0.256-0.462-0.266-0.535-0.021-0.671 2.027-2.453 3.458-2.453 1.963 0.011-1.377 1.353-3.788 2.244-4.023 0.273-0.065 0.346-0.021 0.682 0.374 0.429 0.501 0.483 0.523 0.64 0.224 0.229-0.438-0.514-1.28-1.133-1.28-0.912 0-2.108 1.216-2.768 2.817l-0.263 0.63-0.073-0.47c-0.116-0.812-0.577-5.228-0.65-6.264zM10.957 24.605c0-0.053 0.073-0.053 0.158-0.022 2.077 0.8 6.795 0.876 9.227 0.129 0.283-0.096 0.535-0.149 0.555-0.117 0.021 0.021-0.136 0.351-0.347 0.736-0.378 0.694-0.388 0.736-0.483 2.337-0.231 3.906-0.179 3.542-0.535 3.756-0.598 0.352-1.374 0.502-3.020 0.555-1.238 0.042-1.856 0.011-2.611-0.117-1.038-0.182-1.793-0.523-1.793-0.8 0-0.096-0.073-1.248-0.168-2.572l-0.168-2.401-0.408-0.704c-0.23-0.384-0.408-0.736-0.408-0.779z"></path>
</svg>
