<!-- Generated by IcoMoon.io -->
<svg version="1.1" xmlns="http://www.w3.org/2000/svg" width="32" height="32" viewBox="0 0 32 32">
<title>instagram</title>
<path d="M27 8.688v-2.688q0-0.688-0.688-0.688h-2.625q-0.688 0-0.688 0.688v2.688q0 0.625 0.688 0.625h2.625q0.688 0 0.688-0.625zM6.313 26.688h20q0.688 0 0.688-0.688v-11.313h-2.813q0.125 0.75 0.125 1.313 0 3.313-2.344 5.656t-5.656 2.344-5.656-2.344-2.344-5.656q0-0.688 0.125-1.313h-2.75v11.313q0 0.688 0.625 0.688zM16.344 10.688q-2.219 0-3.781 1.563t-1.563 3.75 1.563 3.75 3.781 1.563 3.781-1.563 1.563-3.75-1.563-3.75-3.781-1.563zM27 2.688q1.125 0 1.906 0.781t0.781 1.844v21.375q0 1.063-0.781 1.844t-1.906 0.781h-21.313q-1.125 0-1.906-0.781t-0.781-1.844v-21.375q0-1.063 0.781-1.844t1.906-0.781h21.313z"></path>
</svg>
