<!-- Generated by IcoMoon.io -->
<svg version="1.1" xmlns="http://www.w3.org/2000/svg" width="32" height="32" viewBox="0 0 32 32">
<title>linkedin</title>
<path d="M22.938 16.344q-0.5-0.656-1.875-0.656-1.688 0-2.375 1t-0.688 2.813v9.125q0 0.313-0.188 0.5t-0.5 0.188h-4.75q-0.25 0-0.469-0.188t-0.219-0.5v-16.875q0-0.25 0.219-0.469t0.469-0.219h4.625q0.25 0 0.406 0.125t0.219 0.375v0.313q0.063 0.125 0.063 0.438 1.75-1.688 4.75-1.688 3.313 0 5.188 1.688t1.875 4.938v11.375q0 0.313-0.219 0.5t-0.469 0.188h-4.875q-0.25 0-0.469-0.188t-0.219-0.5v-10.25q0-1.375-0.5-2.031zM8.5 8.219q-0.938 0.969-2.281 0.969t-2.281-0.969-0.938-2.313 0.938-2.281 2.281-0.938 2.281 0.938 0.938 2.281-0.938 2.313zM9.313 11.75v16.875q0 0.313-0.219 0.5t-0.469 0.188h-4.75q-0.313 0-0.5-0.188t-0.188-0.5v-16.875q0-0.25 0.188-0.469t0.5-0.219h4.75q0.25 0 0.469 0.219t0.219 0.469z"></path>
</svg>
