<!-- Generated by IcoMoon.io -->
<svg version="1.1" xmlns="http://www.w3.org/2000/svg" width="21" height="32" viewBox="0 0 21 32">
<title>pinterest</title>
<path d="M6.188 12.875q0-1.688 0.875-2.875t2.125-1.188q1.063 0 1.594 0.688t0.531 1.688q0 0.625-0.188 1.563-0.25 0.875-0.625 2.125-0.375 1.188-0.563 1.938-0.313 1.25 0.469 2.156t2.031 0.906q2.188 0 3.594-2.469t1.406-5.969q0-2.688-1.719-4.375t-4.844-1.688q-3.5 0-5.656 2.219t-2.156 5.344q0 1.813 1.063 3.125 0.375 0.375 0.25 0.875-0.125 0.313-0.313 1.25-0.125 0.313-0.344 0.406t-0.469 0.031q-1.625-0.688-2.438-2.313t-0.813-3.75q0-1.375 0.438-2.75t1.375-2.656 2.25-2.281 3.188-1.594 4.063-0.594 4.094 0.75 3.188 2 2 2.906 0.719 3.406q0 4.688-2.375 7.75t-6.125 3.063q-1.25 0-2.344-0.563t-1.531-1.375q-0.938 3.625-1.125 4.313-0.5 1.875-2.25 4.375h-1.063q-0.375-3.188 0.125-5.25l2.063-8.625q-0.5-1.063-0.5-2.563z"></path>
</svg>
