<!-- Generated by IcoMoon.io -->
<svg version="1.1" xmlns="http://www.w3.org/2000/svg" width="28" height="32" viewBox="0 0 28 32">
<title>puzzle-piece</title>
<path d="M24.688 14.688q1.375 0 2.344 0.969t0.969 2.344-0.969 2.344-2.344 0.969h-2v5.375q0 1.063-0.781 1.844t-1.906 0.781h-5.063v-2q0-1.5-1.063-2.531t-2.563-1.031-2.531 1.031-1.031 2.531v2h-5.063q-1.125 0-1.906-0.781t-0.781-1.844v-5.063h2q1.5 0 2.563-1.063t1.063-2.563-1.063-2.563-2.563-1.063h-2v-5.063q0-1.063 0.781-1.844t1.906-0.781h5.313v-2q0-1.375 0.969-2.375t2.344-1 2.375 1 1 2.375v2h5.313q1.125 0 1.906 0.781t0.781 1.844v5.375h2z"></path>
</svg>
