<!-- Generated by IcoMoon.io -->
<svg version="1.1" xmlns="http://www.w3.org/2000/svg" width="32" height="32" viewBox="0 0 32 32">
<title>skype</title>
<path d="M28.875 18.813q0.813 1.563 0.813 3.25 0 3-2.156 5.125t-5.219 2.125q-1.875 0-3.5-0.813-1.188 0.188-2.313 0.188-5.313 0-9.031-3.688t-3.719-8.875q0-1.25 0.25-2.5-1-1.688-1-3.688 0-3 2.156-5.125t5.219-2.125q2.125 0 3.938 1.125 1.063-0.188 2.188-0.188 5.25 0 8.969 3.656t3.719 8.844q0 1.375-0.313 2.688zM22.906 22.094q0.906-1.219 0.906-2.781 0-1.313-0.531-2.219t-1.469-1.469q-0.875-0.625-2.125-1-1.313-0.375-2.813-0.75-1.25-0.25-1.813-0.438-0.5-0.125-1-0.375t-0.75-0.563-0.25-0.75q0-0.688 0.75-1.188 0.875-0.5 2.25-0.5 1.438 0 2.125 0.438 0.625 0.5 1.125 1.438 0.375 0.688 0.75 1t1.125 0.313 1.281-0.531 0.531-1.219-0.406-1.406-1.25-1.375-2.094-1.063-2.938-0.406q-2.188 0-3.75 0.625-1.625 0.563-2.469 1.688t-0.844 2.5q0 1.5 0.813 2.563 0.813 1 2.188 1.563 1.313 0.563 3.313 1 1.438 0.25 2.313 0.563 0.875 0.25 1.375 0.688 0.5 0.5 0.5 1.25 0 0.875-0.938 1.563-1 0.625-2.563 0.625-1.125 0-1.844-0.313t-1.094-0.813-0.688-1.313q-0.313-0.688-0.75-1.063-0.5-0.375-1.125-0.375-0.813 0-1.344 0.5t-0.531 1.188q0 1.125 0.813 2.25t2.125 1.813q1.75 0.938 4.5 0.938 2.313 0 4-0.688t2.594-1.906z"></path>
</svg>
