<svg version="1.1" xmlns="http://www.w3.org/2000/svg" width="32" height="32" viewBox="0 0 32 32">
  <title>color-fill</title>
  <path d="M22.063 11.938q0.625 0.563 0.625 1.406t-0.625 1.406l-7.313 7.313q-0.563 0.625-1.406 0.625t-1.406-0.625l-7.375-7.313q-0.563-0.563-0.563-1.406t0.563-1.406l6.875-6.875-3.188-3.188 1.938-1.875zM6.938 13.313h12.813l-6.438-6.375zM25.313 15.313q2.688 2.938 2.688 4.688 0 1.125-0.781 1.906t-1.875 0.781-1.875-0.781-0.781-1.906q0-0.813 0.656-1.969t1.344-1.906zM0 26.688h32v5.313h-32v-5.313z"></path>
</svg>
