<!-- Generated by IcoMoon.io -->
<svg version="1.1" xmlns="http://www.w3.org/2000/svg" width="24" height="32" viewBox="0 0 24 32">
<title>color-lens</title>
<path d="M12 4q5 0 8.5 3.125t3.5 7.563q0 2.75-1.969 4.688t-4.719 1.938h-2.313q-0.875 0-1.438 0.594t-0.563 1.406q0 0.75 0.5 1.313 0.5 0.625 0.5 1.375 0 0.813-0.594 1.406t-1.406 0.594q-5 0-8.5-3.5t-3.5-8.5 3.5-8.5 8.5-3.5zM4.656 16q0.844 0 1.438-0.594t0.594-1.406-0.594-1.406-1.438-0.594-1.406 0.594-0.563 1.406 0.563 1.406 1.406 0.594zM8.656 10.688q0.844 0 1.438-0.594t0.594-1.438-0.594-1.406-1.438-0.563-1.406 0.563-0.563 1.406 0.563 1.438 1.406 0.594zM15.344 10.688q0.844 0 1.406-0.594t0.563-1.438-0.563-1.406-1.406-0.563-1.438 0.563-0.594 1.406 0.594 1.438 1.438 0.594zM19.344 16q0.844 0 1.406-0.594t0.563-1.406-0.563-1.406-1.406-0.594-1.438 0.594-0.594 1.406 0.594 1.406 1.438 0.594z"></path>
</svg>
