<!-- Generated by IcoMoon.io -->
<svg version="1.1" xmlns="http://www.w3.org/2000/svg" width="32" height="32" viewBox="0 0 32 32">
<title>github</title>
<path d="M16.344 3q5.531 0 9.438 3.906t3.906 9.406q0 4.375-2.563 7.844t-6.563 4.844q-0.875 0.125-0.875-0.688v-3.625q0-1.688-0.938-2.5 2.75-0.313 4.406-1.688t1.656-4.813q0-2.125-1.375-3.625 0.688-1.625-0.125-3.563-1.125-0.313-3.625 1.375-1.625-0.438-3.375-0.438t-3.313 0.438q-1.125-0.75-2.031-1.094t-1.281-0.281h-0.375q-0.75 1.938-0.125 3.563-1.375 1.5-1.375 3.625 0 3.438 1.688 4.813t4.375 1.688q-0.688 0.625-0.813 1.813-2.625 1.125-3.875-1.125-0.75-1.25-2.063-1.375-0.125 0-0.281 0.031t-0.313 0.219 0.531 0.563q0.875 0.438 1.438 1.938 0.063 0.125 0.125 0.281t0.406 0.594 0.813 0.656 1.281 0.406 1.875-0.125v2.25q0 0.813-0.875 0.688-4-1.375-6.563-4.844t-2.563-7.844q0-5.5 3.906-9.406t9.438-3.906z"></path>
</svg>
