<!-- Generated by IcoMoon.io -->
<svg version="1.1" xmlns="http://www.w3.org/2000/svg" width="32" height="32" viewBox="0 0 32 32">
<title>js</title>
<path d="M21.912 14.365c-0.908 0.072-1.669 0.398-2.235 0.96-0.583 0.579-0.862 1.284-0.862 2.18 0 1.339 0.55 2.276 1.776 3.018 0.312 0.187 0.737 0.391 1.472 0.708 1.001 0.43 1.373 0.634 1.611 0.888 0.293 0.315 0.374 0.816 0.19 1.2-0.036 0.075-0.13 0.199-0.214 0.283-0.283 0.286-0.73 0.437-1.284 0.437-0.936 0-1.635-0.384-2.196-1.215-0.077-0.11-0.147-0.202-0.156-0.202-0.022 0-1.848 1.054-1.887 1.090-0.024 0.022-0.005 0.072 0.089 0.226 0.73 1.229 1.87 1.949 3.411 2.156 0.403 0.055 1.159 0.053 1.546 0 0.97-0.137 1.697-0.459 2.261-1.006 0.6-0.579 0.895-1.328 0.895-2.266 0-0.6-0.099-1.068-0.322-1.532-0.154-0.317-0.307-0.531-0.571-0.799-0.507-0.514-1.162-0.903-2.47-1.464-0.989-0.425-1.32-0.607-1.539-0.84-0.209-0.223-0.298-0.485-0.278-0.812 0.017-0.259 0.089-0.435 0.247-0.605 0.228-0.247 0.492-0.35 0.9-0.348 0.463 0 0.764 0.12 1.068 0.427 0.108 0.106 0.247 0.276 0.312 0.379 0.075 0.118 0.13 0.182 0.149 0.175 0.062-0.027 1.808-1.155 1.808-1.171 0-0.010-0.089-0.149-0.197-0.312-0.23-0.346-0.646-0.778-0.932-0.967-0.528-0.35-1.092-0.531-1.837-0.586-0.365-0.029-0.413-0.029-0.757-0.003zM14.439 18.727l-0.007 4.244-0.053 0.199c-0.070 0.262-0.151 0.418-0.295 0.562-0.202 0.202-0.461 0.286-0.893 0.288-0.617 0.003-0.987-0.259-1.416-0.994-0.070-0.115-0.132-0.209-0.139-0.206-0.010 0.005-0.444 0.267-0.965 0.581l-0.948 0.576 0.072 0.144c0.43 0.857 1.174 1.505 2.069 1.803 0.946 0.315 2.161 0.286 3.051-0.072 1.068-0.432 1.695-1.325 1.86-2.653 0.014-0.134 0.024-1.635 0.024-4.458v-4.255h-2.35zM6.335 3.921h19.931c1.173 0 2.118 0.945 2.118 2.118v19.931c0 1.173-0.945 2.118-2.118 2.118h-19.931c-1.173 0-2.118-0.945-2.118-2.118v-19.931c0-1.173 0.945-2.118 2.118-2.118z"></path>
</svg>
