<!-- Generated by IcoMoon.io -->
<svg version="1.1" xmlns="http://www.w3.org/2000/svg" width="23" height="32" viewBox="0 0 23 32">
<title>paypal</title>
<path d="M14.813 2.688q4.938 0 7 2.438 1.875 2.188 1.25 6.188-1.438 9.125-10.938 9.125h-3.063q-0.5 0-0.875 0.313t-0.438 0.813l-1.063 6.625q-0.063 0.5-0.438 0.813t-0.875 0.313h-4.563q-0.375 0-0.625-0.281t-0.188-0.594l3.875-24.625q0.125-0.5 0.469-0.813t0.844-0.313h9.625zM15.938 11.688q0.25-1.813-0.5-2.688-0.375-0.5-1.125-0.719t-1.344-0.25-1.719-0.031h-0.688q-0.688 0-0.75 0.688l-1.063 6.438h1.438q1.063 0 1.594-0.031t1.375-0.219 1.313-0.531 0.875-1.031 0.594-1.625z"></path>
</svg>
