<!-- Generated by IcoMoon.io -->
<svg version="1.1" xmlns="http://www.w3.org/2000/svg" width="32" height="32" viewBox="0 0 32 32">
<title>sass</title>
<path d="M31.986 20.417c0.019 0.163 0.019 0.325 0 0.488-0.081 0.581-0.4 1.025-0.925 1.356s-0.762 0.256-0.831 0.2c-0.069-0.056 0.075-0.163 0.281-0.294 0.806-0.519 1.044-1.25 0.625-2.037-0.337-0.644-0.919-1.056-1.637-1.3-1.487-0.512-2.994-0.425-4.487 0 0.244 0.744 0.444 1.481-0.119 2.162-0.625 0.75-1.475 1.175-2.462 1.381-0.462 0.1-0.844-0.175-0.906-0.606-0.175-1.194 1.044-2.212 1.862-2.931-0.456-0.706-0.712-1.481-0.881-2.287-0.925 1.062-1.9 2.512-1.612 3.812 0.2 0.9-0.063 1.662-0.887 2.219-0.794 0.537-1.869 0.887-2.844 0.694-0.25-0.050-0.387-0.25-0.356-0.462 0.144-0.9 1.587-2.012 2.194-2.681 0.137-0.15 0.15-0.269 0.050-0.45-0.406-0.744-0.65-1.475-0.875-2.275-0.819 1.837-1.875 4.993-3.531 6.131-0.544 0.375-1.069 0.256-1.3-0.331-0.206-0.512-0.131-1.175-0.088-1.762-0.363 0.781-0.731 1.644-1.281 2.325-0.425 0.525-1.462 0.5-1.862-0.019-1-1.306-0.787-3.112-0.306-4.556l-1.787 0.906c0.462 0.975 0.525 2.056 0.244 3.093-0.319 1.194-1.062 2.131-2.169 2.825-1.206 0.756-4.062 1.506-4.85-0.219-0.444-0.975-0.231-1.894 0.363-2.75 1.037-1.494 3.050-2.319 4.656-3.118-1.987-1.444-5.037-2.656-6.031-5.018-0.919-2.175 1.081-4.256 2.681-5.562 3.681-3.006 10.412-5.956 15.299-3.706 0.962 0.45 2.225 1.525 1.937 3.25-0.25 1.469-0.825 2.406-1.775 3.368-1.975 2.006-9.512 4.862-10.999 0.962-0.037-0.087-0.044-0.256 0.081-0.231 0.156 0.056 1.269 0.925 2.706 1.006 1.069 0.063 2.181-0.175 3.194-0.5 2.056-0.656 4.418-2.087 5.006-4.237 0.225-0.819-0.106-1.681-0.919-2.081-3.069-1.512-7.237 0.206-9.943 1.587-2.081 1.062-5.193 2.837-5.1 5.45 0.088 2.325 3.475 3.768 5.037 5.131 0.912-0.456 2.606-0.925 3.25-1.681 0.675-0.787 1.662-1.619 2.787-1.65 0.481-0.012 0.812 0.231 0.944 0.656 0.119 0.406 0.088 0.719 0.019 1.194 0.281-0.256 0.731-0.262 0.975 0.037 0.725 0.9-1.45 3.131-0.681 4.118 0.906-0.862 1.381-2.569 1.912-3.656 0.256-0.519 1.056-3.15 1.587-3.306 0.462-0.137 1.156-0.256 1.612-0.019 0.144 0.081 0.169 0.156 0.119 0.306-0.412 1.212-0.456 2.112 0.15 3.281 0.862-1.281 1.85-2.669 2.175-4.181 0.031-0.156 0.144-0.238 0.3-0.275 0.444-0.119 1.081-0.219 1.525-0.031 0.181 0.075 0.219 0.175 0.162 0.35-0.45 1.381-0.412 2.35 0.363 3.618 1.937-0.706 4.262-0.987 6.043 0.281-0.212-0.15-0.45-0.319 0 0 0.337 0.238 0.188 0.125 0.006 0 0.725 0.519 1.194 1.175 1.3 2.025zM7.056 21.998v0c0.038-0.431-0.025-0.856-0.156-1.281-1.481 0.506-4.15 2.187-4.037 3.906 0.038 0.606 0.5 0.756 1.087 0.7s1.181-0.369 1.656-0.756c0.85-0.681 1.362-1.525 1.45-2.569zM13.5 17.467c0.037-0.2-0.094-0.287-0.313-0.237-1.837 0.475-2.712 3.575-2.069 5.081 0.075 0.175 0.212 0.181 0.363 0.050 1.094-1 1.775-3.5 2.019-4.893zM17.899 22.579c0.481 0.188 1.644-1.056 1.581-1.681-0.531 0.562-1.056 1.119-1.581 1.681zM22.943 21.473c0.712-0.387 1.044-1.169 0.769-1.881-0.519 0.375-1.35 1.175-1.256 1.931 0.012 0.106 0.344 0.031 0.488-0.050z"></path>
</svg>
