<!-- Generated by IcoMoon.io -->
<svg version="1.1" xmlns="http://www.w3.org/2000/svg" width="24" height="32" viewBox="0 0 24 32">
<title>share</title>
<path d="M20 21.438q1.625 0 2.75 1.156t1.125 2.75-1.125 2.75-2.75 1.156-2.75-1.156-1.125-2.781q0-0.375 0.063-0.875l-9.438-5.5q-1.188 1.063-2.75 1.063-1.688 0-2.844-1.156t-1.156-2.844 1.156-2.844 2.844-1.156q1.563 0 2.75 1.063l9.375-5.438q-0.125-0.563-0.125-0.938 0-1.688 1.156-2.844t2.844-1.156 2.844 1.156 1.156 2.813-1.156 2.844-2.844 1.188q-1.563 0-2.75-1.125l-9.375 5.5q0.125 0.563 0.125 0.938t-0.125 0.938l9.5 5.5q1.125-1 2.625-1z"></path>
</svg>
