<!-- Generated by IcoMoon.io -->
<svg version="1.1" xmlns="http://www.w3.org/2000/svg" width="32" height="32" viewBox="0 0 32 32">
<title>twitter</title>
<path d="M26.938 10.563v0.688q0 2.813-1.031 5.531t-2.938 4.969-4.938 3.656-6.656 1.406q-4.563 0-8.375-2.438 0.625 0.063 1.313 0.063 3.813 0 6.813-2.313-1.813-0.063-3.219-1.125t-1.906-2.688q0.5 0.125 1 0.125 0.75 0 1.438-0.25-1.875-0.375-3.125-1.875t-1.25-3.438v-0.063q1.188 0.625 2.5 0.688-2.438-1.688-2.438-4.563 0-1.5 0.75-2.75 2.063 2.5 4.969 4t6.281 1.688q-0.125-0.625-0.125-1.25 0-2.25 1.594-3.844t3.844-1.594q2.375 0 4 1.688 1.875-0.375 3.5-1.313-0.625 1.938-2.438 3 1.688-0.188 3.188-0.813-1.125 1.625-2.75 2.813z"></path>
</svg>
